<svg id="Camada_1" data-name="Camada 1" xmlns="http://www.w3.org/2000/svg" viewBox="0 0 841.89 595.28"><defs><style>.cls-1{fill:#065da6;}.cls-2{fill:#ed6a16;}</style></defs><path class="cls-1" d="M182,295a30.78,30.78,0,0,0-10.26-1.77c-12.7-.11-25.6-.1-38.07-.08H118.44c-5.61,0-6.75-1.12-6.75-6.65v-1c0-5.32,1.31-6.62,6.62-6.62h48.94c5.09,0,5.77.48,7.34,5.16l.47,1.37h18.48l-.63-2.5c-.19-.75-.34-1.48-.49-2.19a25.21,25.21,0,0,0-1.36-4.81c-3.73-8.61-10.86-13-21.21-13l-13,0c-13.45,0-27.37,0-41,.11a26.94,26.94,0,0,0-10.8,2.27,21.07,21.07,0,0,0-11,12.74,25.45,25.45,0,0,0,1.65,20c4,7.42,10.65,11.19,19.84,11.19h0q26.87,0,53.73,0a18.49,18.49,0,0,1,3.83.38c2.17.46,3.12,1.66,3.17,4,0,1.28,0,2.56,0,3.83v1.16c0,5.21-1.08,6.26-6.31,6.26H119.91c-1.09,0-2.19,0-3.27,0-3.4-.14-4.84-1.6-4.94-5.06,0-.63,0-1.26,0-1.92v-3h-18l-.27,1.69a21,21,0,0,0,4.69,16.91,20.54,20.54,0,0,0,15.47,7.39c9.38.12,18.85.17,28.22.17,11.09,0,22-.06,32.62-.14,9-.07,16.84-5.82,19.1-14a42.9,42.9,0,0,0,1.22-15.15A18.9,18.9,0,0,0,182,295Z"/><path class="cls-1" d="M314.35,273.9v55.44a11.35,11.35,0,0,0,11.34,11.34h76a10.24,10.24,0,0,0,10.23-10.23v-5.77h-79V309.73h63.24a11,11,0,0,0,11-11v-4.89H333v-15h67a11.89,11.89,0,0,0,11.88-11.88v-3.84H325.17A10.83,10.83,0,0,0,314.35,273.9Z"/><path class="cls-1" d="M516.46,329.51c.22-7.36.44-15-4.73-21.78,5.84-8.3,6.72-25.76,1.63-34.37a21.35,21.35,0,0,0-2.28-3.17c-4.31-4.9-10-7.28-17.5-7.28h0c-18.57,0-52.09.08-67.15.15a9.75,9.75,0,0,0-9.69,9.74v59.25a8.61,8.61,0,0,0,8.6,8.6h10V315.77h56.17a12.74,12.74,0,0,1,1.75.08c3.35.45,4.49,1.73,4.54,5.09,0,2.24,0,6.57,0,10.41a9.34,9.34,0,0,0,9.35,9.36h9.64l-.22-2.21A70.69,70.69,0,0,1,516.46,329.51Zm-81.07-50.63.69,0h55.26c5.17,0,6.43,1.28,6.44,6.52v2.43c0,2.37,0,4.74,0,7.11-.08,3-1.29,4.39-4.32,4.84a13.22,13.22,0,0,1-2,.12H435.39Z"/><path class="cls-1" d="M620.52,275.52c-3.92-8.35-10.93-12.59-20.84-12.6-18.95,0-52.89.06-67,.12a9.88,9.88,0,0,0-9.81,9.86v57.83a10,10,0,0,0,10,10h8.38V315.75h27.3c10.93,0,22.23,0,33.34-.1,8.82-.1,16.71-5.78,19.18-13.83s1.67-16.15.68-22.29A17.56,17.56,0,0,0,620.52,275.52Zm-79.23,3.35h56.17c5,0,6.29,1.25,6.3,6.35v2.41c0,2.46,0,4.91,0,7.37-.08,3.09-1.21,4.34-4.31,4.79a12.22,12.22,0,0,1-1.73.1H541.29Z"/><path class="cls-1" d="M288.43,293.62H218.24V263.08H212a12.28,12.28,0,0,0-12.26,12.27v52.27a13.08,13.08,0,0,0,13.07,13.07h5.42V309.94h70.34v18.27A12.46,12.46,0,0,0,301,340.66h5.83V263.1H288.43Z"/><path class="cls-1" d="M746.19,337.22a3.44,3.44,0,0,0,2.45-5.86l-54-54.6a27.49,27.49,0,0,0-38.88,0h0l56.77,57.39a10.33,10.33,0,0,0,7.34,3.07Z"/><path class="cls-1" d="M677.86,307.87l-8.21,8a5.65,5.65,0,0,1-7.36.48l-5.14-3.86,21.27-21.18,13,21.48L686.6,308A6.2,6.2,0,0,0,677.86,307.87Z"/><path class="cls-2" d="M693.81,276c-10.74-10.73-17.12-21.63-27.85-10.89,0,0-50.36,52.22-66.46,68.4a4.39,4.39,0,0,0,3.12,7.48h24.46a9.4,9.4,0,0,0,6.62-2.74L693.81,276Z"/></svg>