<?xml version="1.0" encoding="utf-8"?>
<!-- Generator: Adobe Illustrator 19.0.0, SVG Export Plug-In . SVG Version: 6.00 Build 0)  -->
<svg version="1.1" id="Camada_1" xmlns="http://www.w3.org/2000/svg" xmlns:xlink="http://www.w3.org/1999/xlink" x="0px" y="0px"
	 viewBox="115 99.7 841.9 595.3" style="enable-background:new 115 99.7 841.9 595.3;" xml:space="preserve">
<style type="text/css">
	.st0{fill:#2C579C;}
	.st1{fill:#FFFFFF;}
	.st2{display:none;fill:#005BAA;}
	.st3{fill:#0D1F48;}
	.st4{fill:#005BAA;}
	.st5{font-family:'Poppins-Regular';}
	.st6{font-size:20.1615px;}
</style>
<path class="st0" d="M266.8,353.9c-3.7-1.3-7.4-2-11.3-2c-14-0.1-28.4-0.1-42.1-0.1h-16.9c-6.2,0-7.4-1.3-7.4-7.4v-1.1
	c0-5.9,1.5-7.3,7.3-7.3h54.2c5.7,0,6.4,0.5,8.2,5.7l0.5,1.5h20.4l-0.8-2.8c-0.3-0.8-0.4-1.6-0.5-2.4c-0.4-1.8-0.9-3.7-1.5-5.3
	c-4.2-9.6-12-14.4-23.4-14.4h-14.4c-14.9,0-30.2,0-45.5,0.1c-4.2,0-8.2,0.9-12,2.5c-5.8,2.8-10.2,7.9-12.1,14.1
	c-2.4,7.3-1.8,15.2,1.8,22.1c4.4,8.2,11.8,12.3,21.9,12.3l0,0c19.8,0,39.7,0,59.5,0c1.4,0,2.9,0.1,4.3,0.4c2.4,0.5,3.4,1.9,3.5,4.4
	c0,1.4,0,2.8,0,4.3v1.3c0,5.8-1.3,6.9-7.1,6.9H198c-1.3,0-2.4,0-3.7,0c-3.8-0.1-5.3-1.8-5.4-5.7c0-0.6,0-1.4,0-2.1v-3.4H169
	l-0.3,1.9c-1.1,6.7,0.9,13.5,5.2,18.8c4.3,5,10.5,8.1,17.1,8.2c10.3,0.1,20.9,0.1,31.3,0.1c12.2,0,24.4-0.1,36-0.1
	c10-0.1,18.6-6.4,21.2-15.5c1.4-5.4,1.9-11.1,1.4-16.8C280.4,363.9,274.9,356.7,266.8,353.9z"/>
<path class="st0" d="M413.4,330.5v61.4c0,6.9,5.7,12.6,12.6,12.6h84c6.3,0,11.3-5,11.3-11.3v-6.5h-87.5v-16.5h70.1
	c6.7,0,12.2-5.4,12.2-12.2v-5.4h-82.2V336h74.2c7.3,0,13.1-5.9,13.1-13.1v-4.3h-96C418.8,318.5,413.4,323.9,413.4,330.5z"/>
<path class="st0" d="M637.1,392.1c0.3-8.2,0.5-16.5-5.2-24.1c6.4-9.2,7.4-28.5,1.8-38.1c-0.8-1.3-1.5-2.4-2.5-3.5
	c-4.8-5.4-11.1-8.1-19.4-8.1l0,0c-20.5,0-57.7,0.1-74.3,0.1c-5.9,0-10.7,4.9-10.7,10.8v65.5c0,5.3,4.3,9.6,9.6,9.6h11.1v-27.6h62.1
	c0.6,0,1.3,0,1.9,0.1c3.8,0.5,5,1.9,5,5.7c0,2.5,0,7.3,0,11.6c0,5.7,4.7,10.3,10.3,10.3h10.7l-0.3-2.4
	C636.9,398.8,636.9,395.4,637.1,392.1z M547.3,336h62c5.7,0,7.2,1.4,7.2,7.2v2.6c0,2.6,0,5.3,0,7.8c-0.1,3.4-1.4,4.9-4.8,5.4
	c-0.8,0.1-1.5,0.1-2.1,0.1h-62.1v-23.2L547.3,336L547.3,336z"/>
<path class="st0" d="M752.2,332.4c-4.3-9.2-12.1-14-23.1-14c-21,0-58.6,0.1-74.2,0.1c-6,0-10.8,4.9-10.8,11v64
	c0,6,4.9,11.1,11.1,11.1h9.3V377h30.3c12.1,0,24.6,0,36.9-0.1c9.6,0,18.1-6.2,21.2-15.2c2.8-8.9,1.9-17.9,0.8-24.7
	C753.4,335.3,752.9,333.8,752.2,332.4z M664.6,336h0.8c20.4,0,41,0,61.4,0c5.7,0,6.9,1.4,6.9,7.1v2.6c0,2.8,0,5.4,0,8.2
	c-0.1,3.4-1.4,4.8-4.8,5.3c-0.6,0.1-1.3,0.1-1.9,0.1h-62.5L664.6,336L664.6,336z"/>
<path class="st0" d="M384.7,352.4h-77.6v-33.8h-6.9c-7.4,0-13.6,6-13.6,13.6V390c0,7.9,6.4,14.5,14.5,14.5h6v-34H385v20.3
	c0,7.6,6.2,13.7,13.7,13.7h6.4v-85.8h-20.4V352.4L384.7,352.4z"/>
<path class="st0" d="M891.5,400.7c2.1,0,3.8-1.6,3.9-3.7c0-1-0.4-2-1.1-2.8l-59.7-60.5c-11.8-11.8-31.1-11.8-43.1,0l0,0l62.9,63.5
	c2.1,2.1,5,3.4,8.1,3.4L891.5,400.7L891.5,400.7z"/>
<path class="st0" d="M815.7,368.2l-9.1,8.8c-2.3,2.1-5.7,2.4-8.2,0.5l-5.7-4.3l23.6-23.4l14.4,23.8l-5.3-5.4
	C822.8,365.5,818.5,365.5,815.7,368.2z"/>
<path class="st1" d="M833.4,332.9c-11.8-11.8-18.9-23.9-30.9-12.1c0,0-55.7,57.8-73.6,75.7c-1.9,1.9-1.9,5,0,6.9
	c0.9,0.9,2.1,1.4,3.4,1.4h27.1c2.8,0,5.4-1.1,7.3-3L833.4,332.9L833.4,332.9z"/>
<g>
	<g id="logo1">
		<path class="st2" d="M609.7,440.7c4.5,0,8.2,4.8,8.2,10.7l0,0l0,0c0,0.3,0,0.4,0,0.6v12.1c0,1.3,5.9,2.3,7.3,2.1v-15
			c0-8.7-7.1-15.6-15.8-15.6s-15.8,7.1-15.8,15.6c0,8.7,7.1,15.6,15.8,15.6c2.4,0,4.7-0.5,6.7-1.5v-7.6c-1.5,2.5-3.9,4.2-6.6,4.2
			c-4.5,0-8.2-4.8-8.2-10.7C601.4,445.4,605.2,440.7,609.7,440.7L609.7,440.7z"/>
		<path class="st3" d="M472.5,444.2c2.6,0,5,0.9,7.1,2.3c0.1,0.8-0.9,3.5-2.3,3.2c-1.1-1.1-2.8-1.9-4.4-1.9c-3.8,0-6.8,3.5-6.8,7.9
			c0,4.4,3,7.9,6.8,7.9c1.8,0,3.3-0.8,4.5-2c0.6-0.8,2.9,2.5,1.8,3.4c-1.9,1.3-4.2,2-6.7,2c-6.4,0-11.7-5.2-11.7-11.5
			S465.9,444.2,472.5,444.2L472.5,444.2z"/>
		<path class="st3" d="M518.2,444.2c1.3,0,2.5,0.3,3.5,0.5l0,0c3.3,1.1,6.8,4.3,5.4,9.5c-1.4,5.2-11.5,5.5-13.9,3.8c0-1,0-2.1,0-3
			c2.6,1.3,8.9,0.6,9.5-2.5c0.3-1.9-0.9-3.7-3.3-4.7l0,0c-0.3,0-0.6-0.1-1-0.1c-3.8,0-6.8,3.5-6.8,7.9c0,4.4,3,7.9,6.8,7.9
			c1.9,0,3.7-0.9,4.9-2.4l2.6,2.8c-2.1,1.9-4.8,3.2-7.8,3.2c-6.4,0-11.7-5.2-11.7-11.5S511.7,444.2,518.2,444.2L518.2,444.2z"/>
		<path class="st3" d="M493.8,466.5c-6.3-0.4-11.3-5.2-11.3-11.6v-18.8c-0.5-1.8,5.2-3.8,5.2-1.9v20.5c0,4,2.6,7.1,6.3,8.1v3.7
			L493.8,466.5L493.8,466.5z"/>
		<path class="st3" d="M500.2,435.5c1.8,0,3.2,1.4,3.2,3.2c0,1.8-1.4,3.2-3.2,3.2s-3.2-1.4-3.2-3.2
			C497,436.9,498.6,435.5,500.2,435.5L500.2,435.5z"/>
		<path class="st3" d="M497.6,446.9c0-0.9,5.4-3,5.4-1.3l-0.1,18.4c0,1.9-5.3,2.1-5.3,1.4V446.9L497.6,446.9z"/>
		<path class="st3" d="M567,466.5c-6.3-0.4-11.3-5.2-11.3-11.6v-16.3c-0.3-2.5,5.2-2.6,5.2-2v18.1c0,4,2.6,7.1,6.3,8.1L567,466.5
			L567,466.5z"/>
		<path class="st3" d="M540.9,443.9L540.9,443.9c5.9,0,10.8,4.9,10.8,10.8v9.6c-0.9,1.1-2.6,1.6-5,1.6v-11.3c0-3.8-2.4-7.3-5.8-7.4
			c-3,0-5.4,3.4-5.4,7.4v9.6c-1.4,1.5-3.3,1.9-5.3,1.6v-11.3C530.1,448.8,535,443.9,540.9,443.9L540.9,443.9z"/>
		<polygon class="st3" points="562.2,445.2 566.9,445.2 566.9,449.1 562.2,449.1 		"/>
		<path class="st3" d="M581,444.2c1.3,0,2.5,0.3,3.5,0.5l0,0c3.3,1.1,6.8,4.3,5.4,9.5c-1.5,5.2-11.5,5.5-13.9,3.8c0-1,0-2.1,0-3
			c2.6,1.3,8.9,0.6,9.5-2.5c0.3-1.9-0.9-3.7-3.3-4.7l0,0c-0.3,0-0.6-0.1-1-0.1c-3.8,0-6.8,3.5-6.8,7.9c0,4.4,3,7.9,6.8,7.9
			c1.9,0,3.7-0.9,4.9-2.4l2.6,2.8c-2.1,1.9-4.8,3.2-7.8,3.2c-6.4,0-11.7-5.2-11.7-11.5S574.6,444.2,581,444.2L581,444.2z"/>
		<path class="st3" d="M664.8,444.2c1.3,0,2.5,0.3,3.5,0.5l0,0c3.3,1.1,6.8,4.3,5.4,9.5c-1.5,5.2-11.5,5.5-13.9,3.8c0-1,0-2.1,0-3
			c2.6,1.3,8.9,0.6,9.5-2.5c0.3-1.9-0.9-3.7-3.3-4.7l0,0c-0.3,0-0.6-0.1-1-0.1c-3.8,0-6.8,3.5-6.8,7.9c0,4.4,3,7.9,6.8,7.9
			c1.9,0,3.7-0.9,4.9-2.4l2.6,2.8c-2.1,1.9-4.8,3.2-7.8,3.2c-6.4,0-11.7-5.2-11.7-11.5S658.3,444.2,664.8,444.2L664.8,444.2z"/>
		<path class="st3" d="M713.7,466.5c-6.3-0.4-11.3-5.2-11.3-11.6v-16.3c-0.3-2.5,5.2-2.6,5.2-2v18.1c0,4,2.6,7.1,6.3,8.1
			L713.7,466.5L713.7,466.5z"/>
		<path class="st3" d="M687.6,443.9L687.6,443.9c5.9,0,10.8,4.9,10.8,10.8v9.6c-0.9,1.1-2.6,1.6-5,1.6v-11.3c0-3.8-2.4-7.3-5.8-7.4
			c-3,0-5.4,3.4-5.4,7.4v9.6c-1.4,1.5-3.3,1.9-5.3,1.6v-11.3C676.7,448.8,681.5,443.9,687.6,443.9L687.6,443.9z"/>
		<polygon class="st3" points="708.9,445.2 713.5,445.2 713.5,449.1 708.9,449.1 		"/>
		<path class="st3" d="M727.5,444.2c1.3,0,2.5,0.3,3.5,0.5l0,0c3.3,1.1,6.8,4.3,5.4,9.5c-1.5,5.2-11.5,5.5-13.9,3.8c0-1,0-2.1,0-3
			c2.6,1.3,8.9,0.6,9.5-2.5c0.3-1.9-0.9-3.7-3.3-4.7l0,0c-0.3,0-0.6-0.1-1-0.1c-3.8,0-6.8,3.5-6.8,7.9c0,4.4,3,7.9,6.8,7.9
			c1.9,0,3.7-0.9,4.9-2.4l2.6,2.8c-2.1,1.9-4.8,3.2-7.8,3.2c-6.4,0-11.7-5.2-11.7-11.5S721.1,444.2,727.5,444.2L727.5,444.2z"/>
		<path class="st3" d="M639.4,447.9c3.3,0,5.8,3.5,5.8,7.8l0,0l0,0c0,0.1,0,0.3,0,0.4v7.7v1.1v4.3c0,3.2-3.3,5.9-5.8,6.2
			c-2.8,0.1-4.5-0.8-5.7-2.1c-0.6,0.9-1.3,1.9-1.9,2.8c1,1.8,4.8,2.9,8.3,2.6c5.8-0.4,10.2-5.9,10.2-10.8v-1.3v-1.5v-9.5
			c0-6.3-4.9-11.5-11.1-11.5c-6.2,0-11.1,5.2-11.1,11.5s4.9,11.5,11.1,11.5c1.4,0,2.8-0.3,4-0.8v-4.9c-1,1.3-2.4,2-3.9,2
			c-3.3,0-5.8-3.5-5.8-7.8C633.7,451.3,636.3,447.9,639.4,447.9L639.4,447.9z"/>
	</g>
	<g id="A_com_1_curva">
		<path class="st4" d="M618.5,438.5c-2.5-1.8-5.7-2.8-8.9-2.8c-8.7,0-15.8,7.1-15.8,15.6c0,8.7,7.1,15.6,15.8,15.6
			c2.4,0,4.7-0.5,6.7-1.5c0-1.3,0-6.3,0-7.6c-0.4,0.6-2.9,4.2-6.6,4.2c-4.5,0-8.2-4.8-8.2-10.7s3.7-10.7,8.2-10.7
			c1.8,0,3.4,0.8,4.8,2C616.8,441.6,618,439.9,618.5,438.5z"/>
		<path class="st4" d="M620,439.7c-0.6,1.4-1.8,3.4-4.2,4.7c1.3,1.9,2,4.4,2,7.1l0,0l0,0c0,0.3,0,0.4,0,0.6v12.1
			c0,1.3,5.9,2.3,7.3,2.1v-15C625.3,446.8,623.3,442.6,620,439.7z"/>
	</g>
</g>
<text transform="matrix(1 0 0 1 334.7977 464.5039)" class="st1 st5 st6">Powered by</text>
</svg>
