<?xml version="1.0" encoding="utf-8"?>
<!-- Generator: Adobe Illustrator 19.0.0, SVG Export Plug-In . SVG Version: 6.00 Build 0)  -->
<svg version="1.1" id="Camada_1" xmlns="http://www.w3.org/2000/svg" xmlns:xlink="http://www.w3.org/1999/xlink" x="0px" y="0px"
	 viewBox="115 99.7 841.9 595.3" style="enable-background:new 115 99.7 841.9 595.3;" xml:space="preserve">
<style type="text/css">
	.st0{fill:#2C579C;}
	.st1{fill:#ED6A16;}
	.st2{display:none;fill:#005BAA;}
	.st3{fill:#0D1F48;}
	.st4{fill:#005BAA;}
	.st5{font-family:'Poppins-Regular';}
	.st6{font-size:20.1615px;}
</style>
<path class="st0" d="M270.3,354.8c-3.7-1.3-7.4-2-11.3-2c-14-0.1-28.4-0.1-42.1-0.1H200c-6.2,0-7.4-1.3-7.4-7.4v-1.1
	c0-5.9,1.5-7.3,7.3-7.3h54.2c5.7,0,6.4,0.5,8.2,5.7l0.5,1.5h20.4l-0.8-2.8c-0.3-0.8-0.4-1.6-0.5-2.4c-0.4-1.8-0.9-3.7-1.5-5.3
	c-4.2-9.6-12-14.4-23.4-14.4h-14.4c-14.9,0-30.2,0-45.5,0.1c-4.2,0-8.2,0.9-12,2.5c-5.8,2.8-10.2,7.9-12.1,14.1
	c-2.4,7.3-1.8,15.2,1.8,22.1c4.4,8.2,11.8,12.3,21.9,12.3l0,0c19.8,0,39.7,0,59.5,0c1.4,0,2.9,0.1,4.3,0.4c2.4,0.5,3.4,1.9,3.5,4.4
	c0,1.4,0,2.8,0,4.3v1.3c0,5.8-1.3,6.9-7.1,6.9h-55.4c-1.3,0-2.4,0-3.7,0c-3.8-0.1-5.3-1.8-5.4-5.7c0-0.6,0-1.4,0-2.1v-3.4h-19.9
	l-0.3,1.9c-1.1,6.7,0.9,13.5,5.2,18.8c4.3,5,10.5,8.1,17.1,8.2c10.3,0.1,20.9,0.1,31.3,0.1c12.2,0,24.4-0.1,36-0.1
	c10-0.1,18.6-6.4,21.2-15.5c1.4-5.4,1.9-11.1,1.4-16.8C283.9,364.8,278.4,357.6,270.3,354.8z"/>
<path class="st0" d="M416.9,331.4v61.4c0,6.9,5.7,12.6,12.6,12.6h84c6.3,0,11.3-5,11.3-11.3v-6.5h-87.5v-16.5h70.1
	c6.7,0,12.2-5.4,12.2-12.2v-5.4h-82.2v-16.6h74.2c7.3,0,13.1-5.9,13.1-13.1v-4.3h-96C422.3,319.4,416.9,324.8,416.9,331.4z"/>
<path class="st0" d="M640.6,393c0.3-8.2,0.5-16.5-5.2-24.1c6.4-9.2,7.4-28.5,1.8-38.1c-0.8-1.3-1.5-2.4-2.5-3.5
	c-4.8-5.4-11.1-8.1-19.4-8.1l0,0c-20.5,0-57.7,0.1-74.3,0.1c-5.9,0-10.7,4.9-10.7,10.8v65.5c0,5.3,4.3,9.6,9.6,9.6H551v-27.6h62.1
	c0.6,0,1.3,0,1.9,0.1c3.8,0.5,5,1.9,5,5.7c0,2.5,0,7.3,0,11.6c0,5.7,4.7,10.3,10.3,10.3H641l-0.3-2.4
	C640.4,399.7,640.4,396.3,640.6,393z M550.8,336.9h62c5.7,0,7.2,1.4,7.2,7.2v2.6c0,2.6,0,5.3,0,7.8c-0.1,3.4-1.4,4.9-4.8,5.4
	c-0.8,0.1-1.5,0.1-2.1,0.1H551v-23.2L550.8,336.9L550.8,336.9z"/>
<path class="st0" d="M755.7,333.3c-4.3-9.2-12.1-14-23.1-14c-21,0-58.6,0.1-74.2,0.1c-6,0-10.8,4.9-10.8,11v64
	c0,6,4.9,11.1,11.1,11.1h9.3v-27.6h30.3c12.1,0,24.6,0,36.9-0.1c9.6,0,18.1-6.2,21.2-15.2c2.8-8.9,1.9-17.9,0.8-24.7
	C756.9,336.2,756.4,334.7,755.7,333.3z M668.1,336.9h0.8c20.4,0,41,0,61.4,0c5.7,0,6.9,1.4,6.9,7.1v2.6c0,2.8,0,5.4,0,8.2
	c-0.1,3.4-1.4,4.8-4.8,5.3c-0.6,0.1-1.3,0.1-1.9,0.1H668L668.1,336.9L668.1,336.9z"/>
<path class="st0" d="M388.2,353.3h-77.6v-33.8h-6.9c-7.4,0-13.6,6-13.6,13.6v57.8c0,7.9,6.4,14.5,14.5,14.5h6v-34h77.9v20.3
	c0,7.6,6.2,13.7,13.7,13.7h6.4v-85.8h-20.4V353.3L388.2,353.3z"/>
<path class="st0" d="M895,401.6c2.1,0,3.8-1.6,3.9-3.7c0-1-0.4-2-1.1-2.8l-59.7-60.5c-11.8-11.8-31.1-11.8-43.1,0l0,0l62.9,63.5
	c2.1,2.1,5,3.4,8.1,3.4L895,401.6L895,401.6z"/>
<path class="st0" d="M819.2,369.1l-9.1,8.8c-2.3,2.1-5.7,2.4-8.2,0.5l-5.7-4.3l23.6-23.4l14.4,23.8l-5.3-5.4
	C826.3,366.4,822,366.4,819.2,369.1z"/>
<path class="st1" d="M836.9,333.8C825.1,322,818,309.9,806,321.7c0,0-55.7,57.8-73.6,75.7c-1.9,1.9-1.9,5,0,6.9
	c0.9,0.9,2.1,1.4,3.4,1.4h27.1c2.8,0,5.4-1.1,7.3-3L836.9,333.8L836.9,333.8z"/>
<g>
	<g id="logo1">
		<path class="st2" d="M613.2,441.6c4.5,0,8.2,4.8,8.2,10.7l0,0l0,0c0,0.3,0,0.4,0,0.6V465c0,1.3,5.9,2.3,7.3,2.1v-15
			c0-8.7-7.1-15.6-15.8-15.6s-15.8,7.1-15.8,15.6c0,8.7,7.1,15.6,15.8,15.6c2.4,0,4.7-0.5,6.7-1.5v-7.6c-1.5,2.5-3.9,4.2-6.6,4.2
			c-4.5,0-8.2-4.8-8.2-10.7C604.9,446.3,608.7,441.6,613.2,441.6L613.2,441.6z"/>
		<path class="st3" d="M476,445.1c2.6,0,5,0.9,7.1,2.3c0.1,0.8-0.9,3.5-2.3,3.2c-1.1-1.1-2.8-1.9-4.4-1.9c-3.8,0-6.8,3.5-6.8,7.9
			s3,7.9,6.8,7.9c1.8,0,3.3-0.8,4.5-2c0.6-0.8,2.9,2.5,1.8,3.4c-1.9,1.3-4.2,2-6.7,2c-6.4,0-11.7-5.2-11.7-11.5
			S469.4,445.1,476,445.1L476,445.1z"/>
		<path class="st3" d="M521.7,445.1c1.3,0,2.5,0.3,3.5,0.5l0,0c3.3,1.1,6.8,4.3,5.4,9.5c-1.4,5.2-11.5,5.5-13.9,3.8c0-1,0-2.1,0-3
			c2.6,1.3,8.9,0.6,9.5-2.5c0.3-1.9-0.9-3.7-3.3-4.7l0,0c-0.3,0-0.6-0.1-1-0.1c-3.8,0-6.8,3.5-6.8,7.9s3,7.9,6.8,7.9
			c1.9,0,3.7-0.9,4.9-2.4l2.6,2.8c-2.1,1.9-4.8,3.2-7.8,3.2c-6.4,0-11.7-5.2-11.7-11.5S515.2,445.1,521.7,445.1L521.7,445.1z"/>
		<path class="st3" d="M497.3,467.4c-6.3-0.4-11.3-5.2-11.3-11.6V437c-0.5-1.8,5.2-3.8,5.2-1.9v20.5c0,4,2.6,7.1,6.3,8.1v3.7H497.3z
			"/>
		<path class="st3" d="M503.7,436.4c1.8,0,3.2,1.4,3.2,3.2s-1.4,3.2-3.2,3.2s-3.2-1.4-3.2-3.2S502.1,436.4,503.7,436.4L503.7,436.4z
			"/>
		<path class="st3" d="M501.1,447.8c0-0.9,5.4-3,5.4-1.3l-0.1,18.4c0,1.9-5.3,2.1-5.3,1.4V447.8L501.1,447.8z"/>
		<path class="st3" d="M570.5,467.4c-6.3-0.4-11.3-5.2-11.3-11.6v-16.3c-0.3-2.5,5.2-2.6,5.2-2v18.1c0,4,2.6,7.1,6.3,8.1
			L570.5,467.4L570.5,467.4z"/>
		<path class="st3" d="M544.4,444.8L544.4,444.8c5.9,0,10.8,4.9,10.8,10.8v9.6c-0.9,1.1-2.6,1.6-5,1.6v-11.3c0-3.8-2.4-7.3-5.8-7.4
			c-3,0-5.4,3.4-5.4,7.4v9.6c-1.4,1.5-3.3,1.9-5.3,1.6v-11.3C533.6,449.7,538.5,444.8,544.4,444.8L544.4,444.8z"/>
		<polygon class="st3" points="565.7,446.1 570.4,446.1 570.4,450 565.7,450 		"/>
		<path class="st3" d="M584.5,445.1c1.3,0,2.5,0.3,3.5,0.5l0,0c3.3,1.1,6.8,4.3,5.4,9.5c-1.5,5.2-11.5,5.5-13.9,3.8c0-1,0-2.1,0-3
			c2.6,1.3,8.9,0.6,9.5-2.5c0.3-1.9-0.9-3.7-3.3-4.7l0,0c-0.3,0-0.6-0.1-1-0.1c-3.8,0-6.8,3.5-6.8,7.9s3,7.9,6.8,7.9
			c1.9,0,3.7-0.9,4.9-2.4l2.6,2.8c-2.1,1.9-4.8,3.2-7.8,3.2c-6.4,0-11.7-5.2-11.7-11.5S578.1,445.1,584.5,445.1L584.5,445.1z"/>
		<path class="st3" d="M668.3,445.1c1.3,0,2.5,0.3,3.5,0.5l0,0c3.3,1.1,6.8,4.3,5.4,9.5c-1.5,5.2-11.5,5.5-13.9,3.8c0-1,0-2.1,0-3
			c2.6,1.3,8.9,0.6,9.5-2.5c0.3-1.9-0.9-3.7-3.3-4.7l0,0c-0.3,0-0.6-0.1-1-0.1c-3.8,0-6.8,3.5-6.8,7.9s3,7.9,6.8,7.9
			c1.9,0,3.7-0.9,4.9-2.4l2.6,2.8c-2.1,1.9-4.8,3.2-7.8,3.2c-6.4,0-11.7-5.2-11.7-11.5S661.8,445.1,668.3,445.1L668.3,445.1z"/>
		<path class="st3" d="M717.2,467.4c-6.3-0.4-11.3-5.2-11.3-11.6v-16.3c-0.3-2.5,5.2-2.6,5.2-2v18.1c0,4,2.6,7.1,6.3,8.1
			L717.2,467.4L717.2,467.4z"/>
		<path class="st3" d="M691.1,444.8L691.1,444.8c5.9,0,10.8,4.9,10.8,10.8v9.6c-0.9,1.1-2.6,1.6-5,1.6v-11.3c0-3.8-2.4-7.3-5.8-7.4
			c-3,0-5.4,3.4-5.4,7.4v9.6c-1.4,1.5-3.3,1.9-5.3,1.6v-11.3C680.2,449.7,685,444.8,691.1,444.8L691.1,444.8z"/>
		<polygon class="st3" points="712.4,446.1 717,446.1 717,450 712.4,450 		"/>
		<path class="st3" d="M731,445.1c1.3,0,2.5,0.3,3.5,0.5l0,0c3.3,1.1,6.8,4.3,5.4,9.5c-1.5,5.2-11.5,5.5-13.9,3.8c0-1,0-2.1,0-3
			c2.6,1.3,8.9,0.6,9.5-2.5c0.3-1.9-0.9-3.7-3.3-4.7l0,0c-0.3,0-0.6-0.1-1-0.1c-3.8,0-6.8,3.5-6.8,7.9s3,7.9,6.8,7.9
			c1.9,0,3.7-0.9,4.9-2.4l2.6,2.8c-2.1,1.9-4.8,3.2-7.8,3.2c-6.4,0-11.7-5.2-11.7-11.5S724.6,445.1,731,445.1L731,445.1z"/>
		<path class="st3" d="M642.9,448.8c3.3,0,5.8,3.5,5.8,7.8l0,0l0,0c0,0.1,0,0.3,0,0.4v7.7v1.1v4.3c0,3.2-3.3,5.9-5.8,6.2
			c-2.8,0.1-4.5-0.8-5.7-2.1c-0.6,0.9-1.3,1.9-1.9,2.8c1,1.8,4.8,2.9,8.3,2.6c5.8-0.4,10.2-5.9,10.2-10.8v-1.3V466v-9.5
			c0-6.3-4.9-11.5-11.1-11.5c-6.2,0-11.1,5.2-11.1,11.5s4.9,11.5,11.1,11.5c1.4,0,2.8-0.3,4-0.8v-4.9c-1,1.3-2.4,2-3.9,2
			c-3.3,0-5.8-3.5-5.8-7.8C637.2,452.2,639.8,448.8,642.9,448.8L642.9,448.8z"/>
	</g>
	<g id="A_com_1_curva">
		<path class="st4" d="M622,439.4c-2.5-1.8-5.7-2.8-8.9-2.8c-8.7,0-15.8,7.1-15.8,15.6c0,8.7,7.1,15.6,15.8,15.6
			c2.4,0,4.7-0.5,6.7-1.5c0-1.3,0-6.3,0-7.6c-0.4,0.6-2.9,4.2-6.6,4.2c-4.5,0-8.2-4.8-8.2-10.7s3.7-10.7,8.2-10.7
			c1.8,0,3.4,0.8,4.8,2C620.3,442.5,621.5,440.8,622,439.4z"/>
		<path class="st4" d="M623.5,440.6c-0.6,1.4-1.8,3.4-4.2,4.7c1.3,1.9,2,4.4,2,7.1l0,0l0,0c0,0.3,0,0.4,0,0.6v12.1
			c0,1.3,5.9,2.3,7.3,2.1v-15C628.8,447.7,626.8,443.5,623.5,440.6z"/>
	</g>
</g>
<text transform="matrix(1 0 0 1 338.3068 465.4153)" class="st5 st6">Powered by</text>
</svg>
