<?xml version="1.0" encoding="utf-8"?>
<!-- Generator: Adobe Illustrator 19.0.0, SVG Export Plug-In . SVG Version: 6.00 Build 0)  -->
<svg version="1.1" id="Camada_1" xmlns="http://www.w3.org/2000/svg" xmlns:xlink="http://www.w3.org/1999/xlink" x="0px" y="0px"
	 viewBox="115 99.7 841.9 595.3" style="enable-background:new 115 99.7 841.9 595.3;" xml:space="preserve">
<style type="text/css">
	.st0{fill:#2C579C;}
	.st1{fill:#ED6A16;}
	.st2{display:none;fill:#005BAA;}
	.st3{fill:#0D1F48;}
	.st4{fill:#005BAA;}
	.st5{font-family:'Poppins-Regular';}
	.st6{font-size:20.1615px;}
</style>
<path class="st0" d="M271,483.2c-3.7-1.3-7.4-2-11.3-2c-14-0.1-28.4-0.1-42.1-0.1h-16.9c-6.2,0-7.4-1.3-7.4-7.4v-1.1
	c0-5.9,1.5-7.3,7.3-7.3h54.2c5.7,0,6.4,0.5,8.2,5.7l0.5,1.5h20.4l-0.8-2.8c-0.3-0.8-0.4-1.6-0.5-2.4c-0.4-1.8-0.9-3.7-1.5-5.3
	c-4.2-9.6-12-14.4-23.4-14.4h-14.4c-14.9,0-30.2,0-45.5,0.1c-4.2,0-8.2,0.9-12,2.5c-5.8,2.8-10.2,7.9-12.1,14.1
	c-2.4,7.3-1.8,15.2,1.8,22.1c4.4,8.2,11.8,12.3,21.9,12.3l0,0c19.8,0,39.7,0,59.5,0c1.4,0,2.9,0.1,4.3,0.4c2.4,0.5,3.4,1.9,3.5,4.4
	c0,1.4,0,2.8,0,4.3v1.3c0,5.8-1.3,6.9-7.1,6.9h-55.4c-1.3,0-2.4,0-3.7,0c-3.8-0.1-5.3-1.8-5.4-5.7c0-0.6,0-1.4,0-2.1v-3.4h-19.9
	l-0.3,1.9c-1.1,6.7,0.9,13.5,5.2,18.8c4.3,5,10.5,8.1,17.1,8.2c10.3,0.1,20.9,0.1,31.3,0.1c12.2,0,24.4-0.1,36-0.1
	c10-0.1,18.6-6.4,21.2-15.5c1.4-5.4,1.9-11.1,1.4-16.8C284.6,493.2,279.1,486,271,483.2z"/>
<path class="st0" d="M417.6,459.8v61.4c0,6.9,5.7,12.6,12.6,12.6h84c6.3,0,11.3-5,11.3-11.3V516h-87.5v-16.5h70.1
	c6.7,0,12.2-5.4,12.2-12.2v-5.4h-82.2v-16.6h74.2c7.3,0,13.1-5.9,13.1-13.1v-4.3h-96C423,447.8,417.6,453.2,417.6,459.8z"/>
<path class="st0" d="M641.3,521.4c0.3-8.2,0.5-16.5-5.2-24.1c6.4-9.2,7.4-28.5,1.8-38.1c-0.8-1.3-1.5-2.4-2.5-3.5
	c-4.8-5.4-11.1-8.1-19.4-8.1l0,0c-20.5,0-57.7,0.1-74.3,0.1c-5.9,0-10.7,4.9-10.7,10.8v65.5c0,5.3,4.3,9.6,9.6,9.6h11.1v-27.6h62.1
	c0.6,0,1.3,0,1.9,0.1c3.8,0.5,5,1.9,5,5.7c0,2.5,0,7.3,0,11.6c0,5.7,4.7,10.3,10.3,10.3h10.7l-0.3-2.4
	C641.1,528.1,641.1,524.7,641.3,521.4z M551.5,465.3h62c5.7,0,7.2,1.4,7.2,7.2v2.6c0,2.6,0,5.3,0,7.8c-0.1,3.4-1.4,4.9-4.8,5.4
	c-0.8,0.1-1.5,0.1-2.1,0.1h-62.1v-23.2L551.5,465.3L551.5,465.3z"/>
<path class="st0" d="M756.4,461.7c-4.3-9.2-12.1-14-23.1-14c-21,0-58.6,0.1-74.2,0.1c-6,0-10.8,4.9-10.8,11v64
	c0,6,4.9,11.1,11.1,11.1h9.3v-27.6H699c12.1,0,24.6,0,36.9-0.1c9.6,0,18.1-6.2,21.2-15.2c2.8-8.9,1.9-17.9,0.8-24.7
	C757.6,464.6,757.1,463.1,756.4,461.7z M668.8,465.3h0.8c20.4,0,41,0,61.4,0c5.7,0,6.9,1.4,6.9,7.1v2.6c0,2.8,0,5.4,0,8.2
	c-0.1,3.4-1.4,4.8-4.8,5.3c-0.6,0.1-1.3,0.1-1.9,0.1h-62.5L668.8,465.3L668.8,465.3z"/>
<path class="st0" d="M388.9,481.7h-77.6v-33.8h-6.9c-7.4,0-13.6,6-13.6,13.6v57.8c0,7.9,6.4,14.5,14.5,14.5h6v-34h77.9v20.3
	c0,7.6,6.2,13.7,13.7,13.7h6.4v-85.8h-20.4V481.7L388.9,481.7z"/>
<path class="st0" d="M895.7,530c2.1,0,3.8-1.6,3.9-3.7c0-1-0.4-2-1.1-2.8l-59.7-60.5c-11.8-11.8-31.1-11.8-43.1,0l0,0l62.9,63.5
	c2.1,2.1,5,3.4,8.1,3.4H895.7z"/>
<path class="st0" d="M819.9,497.5l-9.1,8.8c-2.3,2.1-5.7,2.4-8.2,0.5l-5.7-4.3l23.6-23.4l14.4,23.8l-5.3-5.4
	C827,494.8,822.7,494.8,819.9,497.5z"/>
<path class="st1" d="M837.6,462.2c-11.8-11.8-18.9-23.9-30.9-12.1c0,0-55.7,57.8-73.6,75.7c-1.9,1.9-1.9,5,0,6.9
	c0.9,0.9,2.1,1.4,3.4,1.4h27.1c2.8,0,5.4-1.1,7.3-3L837.6,462.2L837.6,462.2z"/>
<path class="st1" d="M499.6,232.7c1.8,8.7,0.5,17.9-3.8,25.7l58.6-36.2l-15-27.3c-3.7-7.3-12.5-10.3-19.8-6.7
	c-0.4,0.3-0.8,0.4-1.1,0.6l-33.6,20.7C492.4,215.2,497.7,223.4,499.6,232.7z"/>
<path class="st1" d="M456.1,211.2c-16,3.3-26.5,18.8-23.2,34.9c3.3,16.1,18.8,26.5,34.9,23.2c16.1-3.3,26.5-18.8,23.2-34.9l0,0
	C487.8,218.4,472.1,208,456.1,211.2L456.1,211.2z M464.3,252c-6.4,1.3-12.9-2.9-14.1-9.3s2.9-12.9,9.3-14.1
	c6.4-1.3,12.7,2.9,14.1,9.3C475,244.3,470.8,250.6,464.3,252L464.3,252L464.3,252z"/>
<path class="st1" d="M501.3,320.9l41.2-54.7l-63.4,40.7l6.4,12.7l0.1,0.1C488.7,326,497.1,326.3,501.3,320.9z"/>
<polygon class="st0" points="447.8,411.4 485.9,411.4 529.6,346.6 502,337.4 "/>
<path class="st0" d="M641.3,305.6c0-5.8-4-10.8-9.7-12.2v-5.5c0-1.4-1.1-2.5-2.5-2.5h-0.6c-1.4,0-2.5,1.1-2.5,2.5v5.5
	c-2.3,0.5-4.3,1.8-5.9,3.4h-23.6l-4.4-22.1c0.1-1.5,0-3-0.3-4.4c-2.9-13.9-13.4-20.2-23.4-19.8c-0.4,0-0.9,0.3-1.1,0.6l-37.4,48.5
	l33.9,12.9l13.1-15.2l2.3,11.3l0,0c0.4,4.4,4.2,7.8,8.6,7.8h32.6c0.6,0,1.3-0.1,1.9-0.3c1.1,0.8,2.5,1.3,3.9,1.6V408
	c0,1.4,1.1,2.5,2.5,2.5h0.8c1.4,0,2.5-1.1,2.5-2.5v-90.2C637.3,316.4,641.3,311.4,641.3,305.6z"/>
<path class="st0" d="M469.1,302.3c0.4,0.6,1.1,0.8,1.8,0.4l0,0L599,221.5l14.4-8.7c1.8-1,2.4-3.3,1.4-5.2c-1-1.9-2-3.7-2.8-4.9
	c-5.4-9.1-14.5-13.9-23.7-10.8c-4.3-4.8-11.7-5-16.4-0.8c-2.3,2-3.7,4.9-3.8,7.9c0,1.3,0.1,2.5,0.5,3.8c-7.4,6.3-8.8,15.6-3.4,24.7
	l1.1,1.6l-101.3,64.1c-0.5,0.4-0.8,1.1-0.4,1.6L469.1,302.3z"/>
<path class="st0" d="M577.1,245.4c7.4,7.4,18.8,9.3,28.1,4.4l0,0c3.7-1.9,6.8-4.7,9.1-8.2c5.5-7.6,5.2-16.1,2.9-23.6l-41,26.3
	C576.6,244.8,576.9,245.1,577.1,245.4z"/>
<path class="st0" d="M582.7,397.7c-2.8-2.3-5.9-3.9-9.3-5.2l6.9-50.5c0.1-0.8,0.3-1.6,0.3-2.4c1.9-7.3-2.3-15-9.5-17.4l-7.6-2.5l0,0
	l-38.4-13l-18.1,24.4l42.8,14.6l-13.2,60.6c-0.9,1.6-0.3,3.8,1.4,4.7c0.5,0.3,1,0.4,1.6,0.4l35.3,0.1h16.5c1.6-0.1,3-1.6,2.9-3.3
	c0-0.9-0.5-1.6-1.1-2.3L582.7,397.7z"/>
<g>
	<g id="logo1">
		<path class="st2" d="M613.9,570c4.5,0,8.2,4.8,8.2,10.7l0,0l0,0c0,0.3,0,0.4,0,0.6v12.1c0,1.3,5.9,2.3,7.3,2.1v-15
			c0-8.7-7.1-15.6-15.8-15.6s-15.8,7.1-15.8,15.6c0,8.7,7.1,15.6,15.8,15.6c2.4,0,4.7-0.5,6.7-1.5v-7.6c-1.5,2.5-3.9,4.2-6.6,4.2
			c-4.5,0-8.2-4.8-8.2-10.7C605.6,574.7,609.4,570,613.9,570L613.9,570z"/>
		<path class="st3" d="M476.7,573.5c2.6,0,5,0.9,7.1,2.3c0.1,0.8-0.9,3.5-2.3,3.2c-1.1-1.1-2.8-1.9-4.4-1.9c-3.8,0-6.8,3.5-6.8,7.9
			s3,7.9,6.8,7.9c1.8,0,3.3-0.8,4.5-2c0.6-0.8,2.9,2.5,1.8,3.4c-1.9,1.3-4.2,2-6.7,2c-6.4,0-11.7-5.2-11.7-11.5
			S470.1,573.5,476.7,573.5L476.7,573.5z"/>
		<path class="st3" d="M522.4,573.5c1.3,0,2.5,0.3,3.5,0.5l0,0c3.3,1.1,6.8,4.3,5.4,9.5c-1.4,5.2-11.5,5.5-13.9,3.8c0-1,0-2.1,0-3
			c2.6,1.3,8.9,0.6,9.5-2.5c0.3-1.9-0.9-3.7-3.3-4.7l0,0c-0.3,0-0.6-0.1-1-0.1c-3.8,0-6.8,3.5-6.8,7.9s3,7.9,6.8,7.9
			c1.9,0,3.7-0.9,4.9-2.4l2.6,2.8c-2.1,1.9-4.8,3.2-7.8,3.2c-6.4,0-11.7-5.2-11.7-11.5S515.9,573.5,522.4,573.5L522.4,573.5z"/>
		<path class="st3" d="M498,595.8c-6.3-0.4-11.3-5.2-11.3-11.6v-18.8c-0.5-1.8,5.2-3.8,5.2-1.9V584c0,4,2.6,7.1,6.3,8.1v3.7H498z"/>
		<path class="st3" d="M504.4,564.8c1.8,0,3.2,1.4,3.2,3.2s-1.4,3.2-3.2,3.2s-3.2-1.4-3.2-3.2S502.8,564.8,504.4,564.8L504.4,564.8z
			"/>
		<path class="st3" d="M501.8,576.2c0-0.9,5.4-3,5.4-1.3l-0.1,18.4c0,1.9-5.3,2.1-5.3,1.4V576.2L501.8,576.2z"/>
		<path class="st3" d="M571.2,595.8c-6.3-0.4-11.3-5.2-11.3-11.6v-16.3c-0.3-2.5,5.2-2.6,5.2-2V584c0,4,2.6,7.1,6.3,8.1L571.2,595.8
			L571.2,595.8z"/>
		<path class="st3" d="M545.1,573.2L545.1,573.2c5.9,0,10.8,4.9,10.8,10.8v9.6c-0.9,1.1-2.6,1.6-5,1.6v-11.3c0-3.8-2.4-7.3-5.8-7.4
			c-3,0-5.4,3.4-5.4,7.4v9.6c-1.4,1.5-3.3,1.9-5.3,1.6v-11.3C534.3,578.1,539.2,573.2,545.1,573.2L545.1,573.2z"/>
		<polygon class="st3" points="566.4,574.5 571.1,574.5 571.1,578.4 566.4,578.4 		"/>
		<path class="st3" d="M585.2,573.5c1.3,0,2.5,0.3,3.5,0.5l0,0c3.3,1.1,6.8,4.3,5.4,9.5c-1.5,5.2-11.5,5.5-13.9,3.8c0-1,0-2.1,0-3
			c2.6,1.3,8.9,0.6,9.5-2.5c0.3-1.9-0.9-3.7-3.3-4.7l0,0c-0.3,0-0.6-0.1-1-0.1c-3.8,0-6.8,3.5-6.8,7.9s3,7.9,6.8,7.9
			c1.9,0,3.7-0.9,4.9-2.4l2.6,2.8c-2.1,1.9-4.8,3.2-7.8,3.2c-6.4,0-11.7-5.2-11.7-11.5S578.8,573.5,585.2,573.5L585.2,573.5z"/>
		<path class="st3" d="M669,573.5c1.3,0,2.5,0.3,3.5,0.5l0,0c3.3,1.1,6.8,4.3,5.4,9.5c-1.5,5.2-11.5,5.5-13.9,3.8c0-1,0-2.1,0-3
			c2.6,1.3,8.9,0.6,9.5-2.5c0.3-1.9-0.9-3.7-3.3-4.7l0,0c-0.3,0-0.6-0.1-1-0.1c-3.8,0-6.8,3.5-6.8,7.9s3,7.9,6.8,7.9
			c1.9,0,3.7-0.9,4.9-2.4l2.6,2.8c-2.1,1.9-4.8,3.2-7.8,3.2c-6.4,0-11.7-5.2-11.7-11.5S662.5,573.5,669,573.5L669,573.5z"/>
		<path class="st3" d="M717.9,595.8c-6.3-0.4-11.3-5.2-11.3-11.6v-16.3c-0.3-2.5,5.2-2.6,5.2-2V584c0,4,2.6,7.1,6.3,8.1L717.9,595.8
			L717.9,595.8z"/>
		<path class="st3" d="M691.8,573.2L691.8,573.2c5.9,0,10.8,4.9,10.8,10.8v9.6c-0.9,1.1-2.6,1.6-5,1.6v-11.3c0-3.8-2.4-7.3-5.8-7.4
			c-3,0-5.4,3.4-5.4,7.4v9.6c-1.4,1.5-3.3,1.9-5.3,1.6v-11.3C680.9,578.1,685.7,573.2,691.8,573.2L691.8,573.2z"/>
		<polygon class="st3" points="713.1,574.5 717.7,574.5 717.7,578.4 713.1,578.4 		"/>
		<path class="st3" d="M731.7,573.5c1.3,0,2.5,0.3,3.5,0.5l0,0c3.3,1.1,6.8,4.3,5.4,9.5c-1.5,5.2-11.5,5.5-13.9,3.8c0-1,0-2.1,0-3
			c2.6,1.3,8.9,0.6,9.5-2.5c0.3-1.9-0.9-3.7-3.3-4.7l0,0c-0.3,0-0.6-0.1-1-0.1c-3.8,0-6.8,3.5-6.8,7.9s3,7.9,6.8,7.9
			c1.9,0,3.7-0.9,4.9-2.4l2.6,2.8c-2.1,1.9-4.8,3.2-7.8,3.2c-6.4,0-11.7-5.2-11.7-11.5S725.3,573.5,731.7,573.5L731.7,573.5z"/>
		<path class="st3" d="M643.6,577.2c3.3,0,5.8,3.5,5.8,7.8l0,0l0,0c0,0.1,0,0.3,0,0.4v7.7v1.1v4.3c0,3.2-3.3,5.9-5.8,6.2
			c-2.8,0.1-4.5-0.8-5.7-2.1c-0.6,0.9-1.3,1.9-1.9,2.8c1,1.8,4.8,2.9,8.3,2.6c5.8-0.4,10.2-5.9,10.2-10.8v-1.3v-1.5v-9.5
			c0-6.3-4.9-11.5-11.1-11.5c-6.2,0-11.1,5.2-11.1,11.5s4.9,11.5,11.1,11.5c1.4,0,2.8-0.3,4-0.8v-4.9c-1,1.3-2.4,2-3.9,2
			c-3.3,0-5.8-3.5-5.8-7.8C637.9,580.6,640.5,577.2,643.6,577.2L643.6,577.2z"/>
	</g>
	<g id="A_com_1_curva">
		<path class="st4" d="M622.7,567.8c-2.5-1.8-5.7-2.8-8.9-2.8c-8.7,0-15.8,7.1-15.8,15.6c0,8.7,7.1,15.6,15.8,15.6
			c2.4,0,4.7-0.5,6.7-1.5c0-1.3,0-6.3,0-7.6c-0.4,0.6-2.9,4.2-6.6,4.2c-4.5,0-8.2-4.8-8.2-10.7c0-5.9,3.7-10.7,8.2-10.7
			c1.8,0,3.4,0.8,4.8,2C621,570.9,622.2,569.2,622.7,567.8z"/>
		<path class="st4" d="M624.2,569c-0.6,1.4-1.8,3.4-4.2,4.7c1.3,1.9,2,4.4,2,7.1l0,0l0,0c0,0.3,0,0.4,0,0.6v12.1
			c0,1.3,5.9,2.3,7.3,2.1v-15C629.5,576.1,627.5,571.9,624.2,569z"/>
	</g>
</g>
<text transform="matrix(1 0 0 1 338.9703 593.8584)" class="st5 st6">Powered by</text>
</svg>
